<?xml version="1.0" encoding="UTF-8"?>
<!DOCTYPE svg PUBLIC "-//W3C//DTD SVG 1.1//EN" "http://www.w3.org/Graphics/SVG/1.1/DTD/svg11.dtd">
<svg xmlns="http://www.w3.org/2000/svg" version="1.1" width="1080px" height="1080px" style="shape-rendering:geometricPrecision; text-rendering:geometricPrecision; image-rendering:optimizeQuality; fill-rule:evenodd; clip-rule:evenodd" xmlns:xlink="http://www.w3.org/1999/xlink">
<g><path style="opacity:0.976" fill="#FFFFFF" d="M 909.5,338.5 C 908.167,397.33 907.5,456.496 907.5,516C 907.667,575.167 907.833,634.333 908,693.5C 908.191,691.292 908.691,689.292 909.5,687.5C 910.655,692.855 908.988,697.022 904.5,700C 886.608,713.716 868.275,726.883 849.5,739.5C 848.738,738.372 848.071,737.205 847.5,736C 847.664,689.242 847.664,642.409 847.5,595.5C 848.657,587.01 848.824,578.343 848,569.5C 847.824,573.688 847.324,577.688 846.5,581.5C 846.254,531.157 845.42,480.824 844,430.5C 843.426,417.465 842.426,404.465 841,391.5C 840.251,386.5 838.584,381.833 836,377.5C 825.161,368.336 813.994,359.503 802.5,351C 727.978,298.052 652.644,246.052 576.5,195C 570.303,191.451 564.137,187.951 558,184.5C 548.791,189.523 539.624,194.69 530.5,200C 441.662,259.923 353.662,321.089 266.5,383.5C 265.19,497.632 263.856,611.799 262.5,726C 262.537,729.553 262.87,733.053 263.5,736.5C 262.652,738.283 261.319,738.783 259.5,738C 244.677,724.166 229.011,711.499 212.5,700C 211.299,699.097 210.465,697.931 210,696.5C 209.628,574.97 209.461,453.47 209.5,332C 211.154,329.013 213.487,326.679 216.5,325C 322.702,252.405 429.035,180.071 535.5,108C 543.331,103.503 551.165,99.0031 559,94.5C 565.204,97.0181 571.038,100.185 576.5,104C 687.001,181.223 797.334,258.389 907.5,335.5C 908.425,336.357 909.092,337.357 909.5,338.5 Z"/></g>
<g><path style="opacity:0.961" fill="#FFFFFF" d="M 354.5,732.5 C 353.883,732.611 353.383,732.944 353,733.5C 352.177,741.677 352.344,749.677 353.5,757.5C 353.176,771.195 352.343,784.861 351,798.5C 350.692,799.308 350.192,799.975 349.5,800.5C 340.862,796.181 332.529,791.348 324.5,786C 314.008,778.254 303.342,770.754 292.5,763.5C 291.5,737.842 291.167,712.175 291.5,686.5C 292.329,679.345 292.829,672.011 293,664.5C 293.667,611.167 293.667,557.833 293,504.5C 292.617,505.056 292.117,505.389 291.5,505.5C 291.343,504.127 291.51,502.793 292,501.5C 377.298,439.92 463.464,379.42 550.5,320C 552.5,319.333 554.5,319.333 556.5,320C 559.167,321.333 561.833,322.667 564.5,324C 566.322,326.821 568.489,329.321 571,331.5C 571.667,333.833 571.667,336.167 571,338.5C 568.54,339.958 566.373,341.791 564.5,344C 519.153,375.353 473.819,406.687 428.5,438C 404.279,456.035 380.112,474.201 356,492.5C 355.658,572.502 355.158,652.502 354.5,732.5 Z"/></g>
<g><path style="opacity:0.991" fill="#FFFFFF" d="M 417.5,835.5 C 419.472,826.56 420.139,817.227 419.5,807.5C 419.5,804.833 419.5,802.167 419.5,799.5C 419.5,751.833 419.5,704.167 419.5,656.5C 419.5,623.167 419.5,589.833 419.5,556.5C 419.5,536.5 419.5,516.5 419.5,496.5C 420.097,491.706 419.43,487.373 417.5,483.5C 417.414,482.504 417.748,481.671 418.5,481C 453.134,458.019 487.467,434.686 521.5,411C 553.167,389.833 584.833,368.667 616.5,347.5C 617.736,346.754 619.07,346.421 620.5,346.5C 621.514,526.832 621.68,707.166 621,887.5C 601.253,900.626 581.086,913.126 560.5,925C 553.911,927.516 547.244,927.849 540.5,926C 533.809,923.745 527.476,920.745 521.5,917C 485.79,891.118 451.123,863.952 417.5,835.5 Z"/></g>
<g><path style="opacity:0.975" fill="#FFFFFF" d="M 775.5,791.5 C 774.207,790.355 773.041,790.689 772,792.5C 771.667,757.167 771.333,721.833 771,686.5C 770.832,720.003 770.332,753.336 769.5,786.5C 769.333,725.832 769.5,665.166 770,604.5C 770.417,582.825 771.084,561.159 772,539.5C 772.34,535.442 773.007,531.442 774,527.5C 774.885,523.263 777.385,521.429 781.5,522C 799.251,533.758 816.417,546.258 833,559.5C 833.667,623.5 833.667,687.5 833,751.5C 813.926,764.955 794.759,778.288 775.5,791.5 Z"/></g>
<g><path style="opacity:0.988" fill="#FFFFFF" d="M 723.5,542.5 C 723.641,612.339 722.974,682.005 721.5,751.5C 720.505,763.479 719.839,779.479 719.5,799.5C 718.872,806.913 719.539,813.913 721.5,820.5C 701.16,835.881 680.826,851.214 660.5,866.5C 660.44,865.957 660.107,865.624 659.5,865.5C 658.5,866.167 657.5,866.833 656.5,867.5C 655.5,839.841 655.167,812.175 655.5,784.5C 655.5,694.833 655.5,605.167 655.5,515.5C 655.807,509.907 655.473,504.407 654.5,499C 677.5,498.333 700.5,498.333 723.5,499C 722.17,513.598 722.17,528.098 723.5,542.5 Z"/></g>
</svg> 